{"accessors":[{"bufferView":0,"componentType":5126,"count":7577,"max":[1.051570177078247,1.3185477256774902,0.4929018020629883],"min":[-1.051570177078247,-1.3185477256774902,-0.4929018020629883],"type":"VEC3"},{"bufferView":1,"componentType":5125,"count":44784,"type":"SCALAR"}],"asset":{"generator":"Luxion KeyShot","version":"2.0"},"bufferViews":[{"buffer":0,"byteLength":90924,"byteOffset":0,"byteStride":12},{"buffer":0,"byteLength":179136,"byteOffset":90924}],"buffers":[{"byteLength":270060,"uri":"./screen_resources/screen.bin"}],"cameras":[{"name":"active","perspective":{"aspectRatio":1.0,"yfov":0.6911154697478635,"zfar":7.358942985534668,"znear":5.859692573547363},"type":"perspective"}],"materials":[{"doubleSided":true,"pbrMetallicRoughness":{"baseColorFactor":[0.3206426501274109,0.3206426501274109,0.32064175605773926,1.0],"metallicFactor":0.0,"roughnessFactor":0.4472135901451111}}],"meshes":[{"name":"ZBrush_0_PM3D_big screen_15248EBF-mesh","primitives":[{"attributes":{"POSITION":0},"indices":1,"material":0,"mode":4}]}],"nodes":[{"camera":0,"matrix":[-0.9944980712216545,-1.8201850693344568e-07,0.10475515093170129,0.0,-0.012183600511535948,0.9932137434245464,-0.11566387254670384,0.0,-0.10404422879219055,-0.11630378663539886,-0.9877490997314453,0.0,-0.5550178289413452,0.5085465908050537,-6.537455081939697,1.0],"name":"active"},{"mesh":0,"name":"ZBrush_0_PM3D_big screen_15248EBF"},{"children":[1],"matrix":[1.0,0.0,0.0,0.0,0.0,1.0,0.0,0.0,0.0,0.0,1.0,0.0,0.0,1.3185477256774902,0.0,1.0],"name":"ZBrush"},{"children":[2],"name":"Default"},{"children":[3],"name":"lux_root"}],"scenes":[{"nodes":[0,4]}]}