{"accessors":[{"bufferView":0,"componentType":5126,"count":102633,"max":[0.4543115496635437,1.5907366275787354,0.018855400383472443],"min":[-0.5003118515014648,-0.3068016767501831,-0.5936876535415649],"type":"VEC3"},{"bufferView":1,"componentType":5125,"count":612234,"type":"SCALAR"}],"asset":{"generator":"Luxion KeyShot","version":"2.0"},"bufferViews":[{"buffer":0,"byteLength":1231596,"byteOffset":0,"byteStride":12},{"buffer":0,"byteLength":2448936,"byteOffset":1231596}],"buffers":[{"byteLength":3680532,"uri":"./karakter_resources/karakter.bin"}],"cameras":[{"name":"active","perspective":{"aspectRatio":1.0,"yfov":0.6911154697478635,"zfar":5.944527626037598,"znear":5.119619846343994},"type":"perspective"}],"materials":[{"doubleSided":true,"pbrMetallicRoughness":{"baseColorFactor":[0.3206426501274109,0.3206426501274109,0.32064175605773926,1.0],"metallicFactor":0.0,"roughnessFactor":0.4472135901451111}}],"meshes":[{"name":"ZBrush_0_PM3D_head_235F46AE-mesh","primitives":[{"attributes":{"POSITION":0},"indices":1,"material":0,"mode":4}]}],"nodes":[{"camera":0,"matrix":[0.9974999567572504,-1.8243564614550678e-07,0.07066680442097953,0.0,0.0055311718662646656,0.9969322935557496,-0.0780728924511953,0.0,-0.07045000791549683,0.07826858013868332,0.994439959526062,0.0,-0.4705318212509155,1.3435031175613403,5.212815284729004,1.0],"name":"active"},{"mesh":0,"name":"ZBrush_0_PM3D_head_235F46AE"},{"children":[1],"matrix":[1.0,0.0,0.0,0.0,0.0,1.0,0.0,0.0,0.0,0.0,1.0,0.0,0.0,0.3068016767501831,0.0,1.0],"name":"ZBrush"},{"children":[2],"name":"Default"},{"children":[3],"name":"lux_root"}],"scenes":[{"nodes":[0,4]}]} 